<?xml version="1.0" encoding="UTF-8" standalone="no"?>
<!-- Created with Inkscape (http://www.inkscape.org/) -->

<svg
   version="1.1"
   id="svg1"
   width="282.07367"
   height="415.30411"
   viewBox="0 0 282.07367 415.30411"
   xml:space="preserve"
   xmlns="http://www.w3.org/2000/svg"
   xmlns:svg="http://www.w3.org/2000/svg"><defs
     id="defs1" /><g
     id="g1"
     transform="translate(-315.18512,-129.95065)"><g
       id="g10"><g
         id="g9"
         style="fill:#333333;fill-opacity:1;stroke:#ffffff;stroke-width:0.8;stroke-dasharray:none;stroke-opacity:1"><rect
           style="fill:#333333;fill-opacity:1;stroke:#ffffff;stroke-width:0.8;stroke-dasharray:none;stroke-opacity:1"
           id="rect1"
           width="239.0881"
           height="404.22617"
           x="337.09805"
           y="130.35065" /><path
           id="rect3"
           style="fill:#333333;fill-opacity:1;stroke:#ffffff;stroke-width:0.8;stroke-dasharray:none;stroke-opacity:1"
           d="m 315.78859,159.92226 281.07019,-0.11093 m 0,0 v -8.8517 H 315.78859 v 8.99635 l 21.52431,15.10513 h 238.88315 l 20.66273,-15.24207" /><rect
           style="fill:#333333;fill-opacity:1;stroke:#ffffff;stroke-width:0.8;stroke-dasharray:none;stroke-opacity:1"
           id="rect4"
           width="281.26166"
           height="8.898674"
           x="315.58511"
           y="241.53543" /><rect
           style="fill:#333333;fill-opacity:1;stroke:#ffffff;stroke-width:0.8;stroke-dasharray:none;stroke-opacity:1"
           id="rect5"
           width="281.26166"
           height="7.3096251"
           x="315.58511"
           y="337.51398" /><rect
           style="fill:#333333;fill-opacity:1;stroke:#ffffff;stroke-width:0.8;stroke-dasharray:none;stroke-opacity:1"
           id="rect6"
           width="281.26166"
           height="7.6274347"
           x="315.58511"
           y="426.81851" /><path
           id="path7"
           style="fill:#333333;fill-opacity:1;stroke:#ffffff;stroke-width:0.8;stroke-dasharray:none;stroke-opacity:1"
           d="m 315.78859,250.63601 281.07019,-0.11093 m 0,0 v -8.8517 H 315.78859 v 8.99635 l 21.52431,8.21084 238.88315,0.35355 20.66273,-8.70133" /><rect
           style="fill:#333333;fill-opacity:1;stroke:#ffffff;stroke-width:0.8;stroke-dasharray:none;stroke-opacity:1"
           id="rect7"
           width="281.26166"
           height="8.898674"
           x="315.58511"
           y="336.53543" /><path
           id="path8"
           style="fill:#333333;fill-opacity:1;stroke:#ffffff;stroke-width:0.8;stroke-dasharray:none;stroke-opacity:1"
           d="m 315.78859,345.63601 281.07019,-0.11093 m 0,0 v -8.8517 H 315.78859 v 8.99635 c 84.42093,0 242.06822,-0.13694 281.07019,-0.13694" /><rect
           style="fill:#333333;fill-opacity:1;stroke:#ffffff;stroke-width:0.8;stroke-dasharray:none;stroke-opacity:1"
           id="rect8"
           width="281.26166"
           height="8.898674"
           x="315.58511"
           y="-434.3721"
           transform="scale(1,-1)" /><path
           id="path9"
           style="fill:#333333;fill-opacity:1;stroke:#ffffff;stroke-width:0.8;stroke-dasharray:none;stroke-opacity:1"
           d="m 315.78859,514.67891 281.07019,0.11093 m 0,0 v 30.0649 H 315.78859 v -30.20955 l 21.52431,-8.21084 238.88315,-0.35355 20.66273,8.70133" /><path
           id="path10"
           style="fill:#333333;fill-opacity:1;stroke:#ffffff;stroke-width:0.8;stroke-dasharray:none;stroke-opacity:1"
           d="m 315.78859,425.63401 281.07019,0.11093 m 0,0 v 8.8517 H 315.78859 v -8.99635 l 21.52431,-8.21084 238.88315,-0.35355 20.66273,8.70133" /></g></g></g></svg>
